<svg width="69" height="67" viewBox="0 0 69 67" fill="none" xmlns="http://www.w3.org/2000/svg">
<g id="icon/instagram">
<path id="vector" fill-rule="evenodd" clip-rule="evenodd" d="M34.6124 8.375C27.6866 8.375 26.8196 8.40348 24.0996 8.52575C21.3847 8.64803 19.53 9.07347 17.9082 9.6949C16.2082 10.3247 14.6663 11.3129 13.3913 12.5926C12.0946 13.8474 11.091 15.3656 10.4503 17.0414C9.82303 18.6394 9.38953 20.4685 9.26543 23.1435C9.14303 25.8218 9.11243 26.6744 9.11243 33.5C9.11243 40.3256 9.14133 41.1782 9.26543 43.8582C9.38953 46.5332 9.82133 48.3606 10.452 49.9585C11.0912 51.6335 12.0942 53.1528 13.393 54.409C14.6666 55.6866 16.2074 56.6755 17.9082 57.3068C19.53 57.9265 21.3847 58.352 24.0996 58.4742C26.8196 58.5965 27.6866 58.625 34.6124 58.625C41.5382 58.625 42.4052 58.5965 45.1252 58.4742C47.8401 58.352 49.6948 57.9265 51.3166 57.3051C53.0166 56.6753 54.5585 55.687 55.8335 54.4073C57.1303 53.1525 58.1339 51.6344 58.7745 49.9585C59.4035 48.3606 59.8353 46.5332 59.9594 43.8582C60.0835 41.1782 60.1124 40.3239 60.1124 33.5C60.1124 26.6761 60.0835 25.8218 59.9594 23.1418C59.8353 20.4668 59.4035 18.6394 58.7728 17.0414C58.1326 15.3649 57.129 13.8461 55.8318 12.591C54.5583 11.3133 53.0175 10.3245 51.3166 9.69322C49.6948 9.07515 47.8384 8.64803 45.1235 8.52575C42.4052 8.40515 41.5399 8.375 34.6124 8.375ZM34.6124 12.9025C41.4209 12.9025 42.2284 12.9276 44.9178 13.0482C47.4032 13.1605 48.753 13.5675 49.6523 13.9142C50.8423 14.3681 51.6923 14.9142 52.5848 15.7919C53.4773 16.6713 54.0298 17.5088 54.4905 18.6813C54.8407 19.5673 55.2555 20.8973 55.3694 23.3461C55.4918 25.996 55.5173 26.7916 55.5173 33.5C55.5173 40.2084 55.4918 41.004 55.3694 43.6539C55.2555 46.1027 54.8424 47.4326 54.4905 48.3187C54.0824 49.4101 53.4312 50.3974 52.5848 51.2081C51.7622 52.0422 50.7601 52.6839 49.6523 53.0858C48.753 53.4308 47.4032 53.8395 44.9178 53.9517C42.2284 54.0723 41.4226 54.0975 34.6124 54.0975C27.8022 54.0975 26.9964 54.0723 24.307 53.9517C21.8216 53.8395 20.4718 53.4325 19.5725 53.0858C18.4649 52.6837 17.4628 52.042 16.64 51.2081C15.7937 50.3973 15.1425 49.41 14.7343 48.3187C14.3841 47.4326 13.9693 46.1027 13.8554 43.6539C13.733 41.004 13.7075 40.2084 13.7075 33.5C13.7075 26.7916 13.733 25.996 13.8554 23.3461C13.9693 20.8973 14.3824 19.5673 14.7343 18.6813C15.195 17.5088 15.7492 16.6713 16.64 15.7919C17.4627 14.9578 18.4648 14.3162 19.5725 13.9142C20.4718 13.5692 21.8216 13.1605 24.307 13.0482C26.9964 12.9276 27.8039 12.9025 34.6124 12.9025Z" fill="#282828"/>
<path id="vector_2" fill-rule="evenodd" clip-rule="evenodd" d="M34.6124 41.8832C33.4951 41.8832 32.3887 41.6663 31.3564 41.245C30.3241 40.8237 29.3861 40.2062 28.596 39.4277C27.8059 38.6493 27.1792 37.7251 26.7516 36.708C26.324 35.6908 26.1039 34.6007 26.1039 33.4998C26.1039 32.3989 26.324 31.3087 26.7516 30.2916C27.1792 29.2745 27.8059 28.3503 28.596 27.5718C29.3861 26.7934 30.3241 26.1759 31.3564 25.7545C32.3887 25.3332 33.4951 25.1164 34.6124 25.1164C36.869 25.1164 39.0332 25.9996 40.6288 27.5718C42.2245 29.144 43.1209 31.2764 43.1209 33.4998C43.1209 35.7232 42.2245 37.8555 40.6288 39.4277C39.0332 40.9999 36.869 41.8832 34.6124 41.8832ZM34.6124 20.5855C31.1362 20.5855 27.8024 21.9461 25.3444 24.368C22.8863 26.7899 21.5054 30.0747 21.5054 33.4998C21.5054 36.9249 22.8863 40.2096 25.3444 42.6315C27.8024 45.0534 31.1362 46.414 34.6124 46.414C38.0886 46.414 41.4224 45.0534 43.8805 42.6315C46.3385 40.2096 47.7194 36.9249 47.7194 33.4998C47.7194 30.0747 46.3385 26.7899 43.8805 24.368C41.4224 21.9461 38.0886 20.5855 34.6124 20.5855ZM51.5325 20.351C51.5325 21.1607 51.2061 21.9371 50.6251 22.5096C50.044 23.0821 49.256 23.4037 48.4343 23.4037C47.6126 23.4037 46.8245 23.0821 46.2435 22.5096C45.6624 21.9371 45.336 21.1607 45.336 20.351C45.336 19.5414 45.6624 18.7649 46.2435 18.1925C46.8245 17.62 47.6126 17.2983 48.4343 17.2983C49.256 17.2983 50.044 17.62 50.6251 18.1925C51.2061 18.7649 51.5325 19.5414 51.5325 20.351Z" fill="#282828"/>
</g>
</svg>
