<svg width="67" height="67" viewBox="0 0 67 67" fill="none" xmlns="http://www.w3.org/2000/svg">
<g id="icon/tiktok">
<path id="vector" d="M50.4301 16.7751C47.4675 14.8142 45.3292 11.6766 44.6621 8.01912C44.518 7.22889 44.4389 6.41561 44.4389 5.5835H34.9832L34.9681 44.0526C34.8091 48.3604 31.3165 51.8179 27.0348 51.8179C25.7041 51.8179 24.451 51.4802 23.3478 50.8908C20.8178 49.5393 19.0864 46.8472 19.0864 43.7492C19.0864 39.2999 22.6523 35.68 27.0348 35.68C27.8529 35.68 28.6378 35.817 29.3801 36.0531V26.2537C28.6119 26.1475 27.8313 26.0811 27.0348 26.0811C17.438 26.0811 9.6308 34.007 9.6308 43.7492C9.6308 49.7265 12.5726 55.0162 17.0607 58.2147C19.8877 60.2295 23.3263 61.4168 27.0348 61.4168C36.6316 61.4168 44.4389 53.4914 44.4389 43.7492V24.2421C48.1475 26.9443 52.6911 28.5366 57.594 28.5366V18.9377C54.953 18.9377 52.4931 18.1406 50.4301 16.7751Z" fill="#282828"/>
</g>
</svg>
